<svg xmlns="http://www.w3.org/2000/svg" xmlns:xlink="http://www.w3.org/1999/xlink" width="100" zoomAndPan="magnify" viewBox="0 0 75 74.999997" height="100" preserveAspectRatio="xMidYMid meet" version="1.0"><defs><clipPath id="816c3bdef8"><path d="M 11.859375 22 L 62.109375 22 L 62.109375 33 L 11.859375 33 Z M 11.859375 22 " clip-rule="nonzero"/></clipPath><clipPath id="7de03eb730"><path d="M 16 45 L 33 45 L 33 74.136719 L 16 74.136719 Z M 16 45 " clip-rule="nonzero"/></clipPath><clipPath id="b021a4c258"><path d="M 41 45 L 58 45 L 58 74.136719 L 41 74.136719 Z M 41 45 " clip-rule="nonzero"/></clipPath><clipPath id="7c0a3ea30e"><path d="M 34 0.636719 L 40 0.636719 L 40 14 L 34 14 Z M 34 0.636719 " clip-rule="nonzero"/></clipPath></defs><path fill="#daa63f" d="M 37.070312 52.230469 C 25.246094 52.230469 15.628906 42.613281 15.628906 30.789062 C 15.628906 30.132812 16.160156 29.585938 16.832031 29.585938 C 17.503906 29.585938 18.035156 30.117188 18.035156 30.789062 C 18.035156 41.285156 26.574219 49.820312 37.070312 49.820312 C 47.5625 49.820312 56.101562 41.285156 56.101562 30.789062 C 56.101562 30.132812 56.632812 29.585938 57.304688 29.585938 C 57.976562 29.585938 58.507812 30.117188 58.507812 30.789062 C 58.507812 42.628906 48.890625 52.230469 37.070312 52.230469 Z M 37.070312 52.230469 " fill-opacity="1" fill-rule="nonzero"/><g clip-path="url(#816c3bdef8)"><path fill="#daa63f" d="M 57.367188 32.007812 L 16.769531 32.007812 C 13.578125 32.007812 11.921875 29.507812 11.921875 27.019531 C 11.921875 24.535156 13.59375 22.03125 16.769531 22.03125 L 57.351562 22.03125 C 59.136719 22.03125 60.652344 22.875 61.511719 24.347656 C 62.433594 25.941406 62.433594 28.082031 61.511719 29.679688 C 60.667969 31.164062 59.152344 32.007812 57.367188 32.007812 Z M 16.769531 24.441406 C 14.828125 24.441406 14.3125 26.066406 14.3125 27.019531 C 14.3125 27.972656 14.828125 29.601562 16.769531 29.601562 L 57.351562 29.601562 C 58.539062 29.601562 59.136719 28.992188 59.433594 28.492188 C 59.933594 27.628906 59.933594 26.425781 59.433594 25.550781 C 59.136719 25.035156 58.539062 24.441406 57.351562 24.441406 Z M 16.769531 24.441406 " fill-opacity="1" fill-rule="nonzero"/></g><g clip-path="url(#7de03eb730)"><path fill="#daa63f" d="M 25.261719 74.359375 C 25.152344 74.359375 25.058594 74.34375 24.949219 74.3125 L 17.535156 72.328125 C 16.894531 72.15625 16.519531 71.496094 16.691406 70.855469 L 23.273438 46.289062 C 23.445312 45.648438 24.105469 45.269531 24.746094 45.441406 C 25.386719 45.617188 25.761719 46.273438 25.589844 46.914062 L 19.316406 70.308594 L 24.402344 71.671875 L 30.234375 49.902344 C 30.40625 49.257812 31.0625 48.882812 31.703125 49.054688 C 32.34375 49.226562 32.71875 49.886719 32.546875 50.527344 L 26.417969 73.46875 C 26.339844 73.78125 26.136719 74.03125 25.855469 74.203125 C 25.683594 74.296875 25.464844 74.359375 25.261719 74.359375 Z M 25.261719 74.359375 " fill-opacity="1" fill-rule="nonzero"/></g><g clip-path="url(#b021a4c258)"><path fill="#daa63f" d="M 48.875 74.359375 C 48.34375 74.359375 47.859375 74 47.71875 73.46875 L 41.574219 50.542969 C 41.402344 49.902344 41.777344 49.242188 42.417969 49.070312 C 43.058594 48.898438 43.714844 49.273438 43.886719 49.917969 L 49.71875 71.6875 L 54.804688 70.324219 L 48.53125 46.929688 C 48.359375 46.289062 48.734375 45.632812 49.375 45.457031 C 50.015625 45.285156 50.675781 45.664062 50.847656 46.304688 L 57.429688 70.871094 C 57.507812 71.183594 57.476562 71.511719 57.304688 71.78125 C 57.132812 72.046875 56.882812 72.265625 56.570312 72.34375 L 49.15625 74.328125 C 49.078125 74.34375 48.96875 74.359375 48.875 74.359375 Z M 48.875 74.359375 " fill-opacity="1" fill-rule="nonzero"/></g><path fill="#daa63f" d="M 45.324219 61.113281 L 28.8125 61.113281 C 28.152344 61.113281 27.605469 60.582031 27.605469 59.910156 C 27.605469 59.238281 28.136719 58.707031 28.8125 58.707031 L 45.324219 58.707031 C 45.984375 58.707031 46.53125 59.238281 46.53125 59.910156 C 46.53125 60.582031 45.984375 61.113281 45.324219 61.113281 Z M 45.324219 61.113281 " fill-opacity="1" fill-rule="nonzero"/><g clip-path="url(#7c0a3ea30e)"><path fill="#daa63f" d="M 38.164062 13.632812 C 38.007812 13.632812 37.851562 13.601562 37.695312 13.539062 C 35.878906 12.773438 34.832031 11.804688 34.472656 10.582031 C 33.957031 8.769531 35.144531 7.128906 36.191406 5.671875 C 36.644531 5.046875 37.476562 3.890625 37.367188 3.53125 C 37.351562 3.46875 37.148438 3.21875 36.441406 2.96875 C 35.816406 2.734375 35.503906 2.042969 35.738281 1.417969 C 35.972656 0.792969 36.660156 0.480469 37.289062 0.714844 C 38.601562 1.199219 39.367188 1.902344 39.664062 2.828125 C 40.117188 4.3125 39.117188 5.703125 38.132812 7.066406 C 37.398438 8.082031 36.582031 9.222656 36.769531 9.925781 C 36.894531 10.378906 37.554688 10.882812 38.601562 11.335938 C 39.210938 11.585938 39.492188 12.289062 39.242188 12.914062 C 39.070312 13.367188 38.632812 13.632812 38.164062 13.632812 Z M 38.164062 13.632812 " fill-opacity="1" fill-rule="nonzero"/></g><path fill="#daa63f" d="M 24.339844 19.609375 C 24.183594 19.609375 24.023438 19.578125 23.867188 19.515625 C 22.054688 18.746094 21.007812 17.777344 20.648438 16.558594 C 20.132812 14.742188 21.320312 13.101562 22.367188 11.648438 C 22.820312 11.023438 23.648438 9.863281 23.539062 9.503906 C 23.523438 9.441406 23.320312 9.191406 22.617188 8.941406 C 21.992188 8.707031 21.679688 8.019531 21.914062 7.394531 C 22.148438 6.769531 22.835938 6.453125 23.460938 6.691406 C 24.777344 7.175781 25.542969 7.878906 25.839844 8.800781 C 26.292969 10.285156 25.292969 11.679688 24.308594 13.039062 C 23.570312 14.054688 22.757812 15.199219 22.945312 15.902344 C 23.070312 16.355469 23.726562 16.855469 24.777344 17.308594 C 25.386719 17.558594 25.667969 18.261719 25.417969 18.886719 C 25.261719 19.324219 24.808594 19.609375 24.339844 19.609375 Z M 24.339844 19.609375 " fill-opacity="1" fill-rule="nonzero"/><path fill="#daa63f" d="M 51.972656 19.609375 C 51.816406 19.609375 51.660156 19.578125 51.503906 19.515625 C 49.6875 18.746094 48.640625 17.777344 48.28125 16.558594 C 47.765625 14.742188 48.953125 13.101562 50 11.648438 C 50.457031 11.023438 51.285156 9.863281 51.175781 9.503906 C 51.160156 9.441406 50.957031 9.191406 50.253906 8.941406 C 49.625 8.707031 49.3125 8.019531 49.546875 7.394531 C 49.78125 6.769531 50.472656 6.453125 51.097656 6.691406 C 52.410156 7.175781 53.175781 7.878906 53.472656 8.800781 C 53.925781 10.285156 52.925781 11.679688 51.941406 13.039062 C 51.207031 14.054688 50.394531 15.199219 50.582031 15.902344 C 50.707031 16.355469 51.363281 16.855469 52.410156 17.308594 C 53.019531 17.558594 53.300781 18.261719 53.050781 18.886719 C 52.878906 19.324219 52.441406 19.609375 51.972656 19.609375 Z M 51.972656 19.609375 " fill-opacity="1" fill-rule="nonzero"/></svg>