<svg xmlns="http://www.w3.org/2000/svg" xmlns:xlink="http://www.w3.org/1999/xlink" width="100" zoomAndPan="magnify" viewBox="0 0 75 74.999997" height="100" preserveAspectRatio="xMidYMid meet" version="1.0"><defs><clipPath id="6268330133"><path d="M 0.664062 5.53125 L 74.164062 5.53125 L 74.164062 68.53125 L 0.664062 68.53125 Z M 0.664062 5.53125 " clip-rule="nonzero"/></clipPath></defs><g clip-path="url(#6268330133)"><path fill="#daa63f" d="M 73.644531 28.894531 C 73.269531 28.894531 72.964844 29.199219 72.964844 29.574219 C 72.964844 33.335938 71.617188 36.980469 69.175781 39.832031 C 66.933594 42.449219 63.898438 44.257812 60.566406 44.984375 L 60.566406 39.144531 C 60.566406 38.769531 60.261719 38.464844 59.882812 38.464844 C 59.507812 38.464844 59.203125 38.769531 59.203125 39.144531 L 59.203125 62.867188 C 58.179688 62.382812 56.421875 61.902344 53.425781 61.472656 C 49.167969 60.859375 43.515625 60.523438 37.507812 60.523438 C 32.832031 60.523438 28.347656 60.726562 24.539062 61.113281 C 24.164062 61.152344 23.890625 61.484375 23.929688 61.859375 C 23.96875 62.234375 24.304688 62.507812 24.675781 62.46875 C 28.441406 62.085938 32.878906 61.886719 37.507812 61.886719 C 43.144531 61.886719 48.519531 62.1875 52.640625 62.738281 C 57.667969 63.410156 58.886719 64.179688 59.152344 64.417969 C 58.886719 64.65625 57.671875 65.425781 52.640625 66.097656 C 48.519531 66.648438 43.144531 66.949219 37.507812 66.949219 C 31.867188 66.949219 26.492188 66.648438 22.371094 66.097656 C 17.339844 65.425781 16.125 64.65625 15.863281 64.417969 C 16.089844 64.210938 17.039062 63.601562 20.601562 63.003906 C 20.972656 62.941406 21.222656 62.589844 21.160156 62.214844 C 21.101562 61.847656 20.746094 61.59375 20.375 61.65625 C 18.265625 62.011719 16.769531 62.398438 15.808594 62.855469 L 15.808594 39.140625 C 15.808594 38.765625 15.503906 38.460938 15.128906 38.460938 C 14.75 38.460938 14.445312 38.765625 14.445312 39.140625 L 14.445312 44.988281 C 11.105469 44.261719 8.066406 42.453125 5.820312 39.835938 C 3.375 36.980469 2.027344 33.335938 2.027344 29.570312 C 2.027344 20.875 9.101562 13.796875 17.800781 13.796875 C 19.296875 13.796875 20.761719 14.007812 22.179688 14.414062 C 21.683594 15.320312 21.261719 16.273438 20.929688 17.277344 C 20.8125 17.632812 21.003906 18.019531 21.363281 18.140625 C 21.71875 18.257812 22.105469 18.066406 22.222656 17.707031 C 22.613281 16.53125 23.132812 15.425781 23.761719 14.40625 C 23.777344 14.382812 23.792969 14.359375 23.804688 14.335938 C 26.636719 9.785156 31.652344 6.910156 37.195312 6.910156 C 45.894531 6.910156 52.972656 13.984375 52.972656 22.683594 C 52.972656 23.960938 52.816406 25.230469 52.519531 26.457031 C 52.429688 26.824219 52.652344 27.195312 53.019531 27.285156 C 53.074219 27.296875 53.128906 27.304688 53.179688 27.304688 C 53.488281 27.304688 53.765625 27.097656 53.84375 26.785156 C 54.167969 25.449219 54.335938 24.074219 54.335938 22.6875 C 54.335938 19.753906 53.59375 16.992188 52.289062 14.578125 C 53.867188 14.0625 55.511719 13.800781 57.191406 13.800781 C 64.609375 13.800781 71.101562 19.0625 72.625 26.3125 C 72.695312 26.636719 72.976562 26.855469 73.292969 26.855469 C 73.339844 26.855469 73.386719 26.851562 73.433594 26.839844 C 73.804688 26.761719 74.039062 26.402344 73.960938 26.03125 C 73.164062 22.242188 71.066406 18.792969 68.054688 16.320312 C 65.003906 13.816406 61.144531 12.433594 57.1875 12.433594 C 55.261719 12.433594 53.378906 12.753906 51.578125 13.375 C 48.519531 8.667969 43.214844 5.546875 37.195312 5.546875 C 31.171875 5.546875 26.027344 8.5 22.90625 13.210938 C 21.257812 12.695312 19.542969 12.433594 17.800781 12.433594 C 8.351562 12.433594 0.660156 20.121094 0.660156 29.570312 C 0.660156 33.660156 2.125 37.625 4.785156 40.722656 C 7.289062 43.644531 10.703125 45.632812 14.445312 46.378906 L 14.445312 64.414062 C 14.445312 65.308594 15.257812 66.453125 21.585938 67.363281 C 25.84375 67.972656 31.496094 68.3125 37.507812 68.3125 C 43.515625 68.3125 49.167969 67.972656 53.425781 67.363281 C 59.753906 66.453125 60.566406 65.308594 60.566406 64.414062 L 60.566406 46.375 C 64.304688 45.625 67.710938 43.632812 70.210938 40.714844 C 72.867188 37.617188 74.328125 33.660156 74.328125 29.570312 C 74.328125 29.195312 74.023438 28.890625 73.648438 28.890625 Z M 73.644531 28.894531 " fill-opacity="1" fill-rule="nonzero"/></g><path fill="#daa63f" d="M 23.652344 33.367188 C 23.289062 33.472656 23.082031 33.851562 23.1875 34.214844 C 23.292969 34.574219 23.667969 34.78125 24.03125 34.675781 C 24.167969 34.636719 37.613281 30.816406 50.476562 34.675781 C 50.539062 34.695312 50.605469 34.703125 50.671875 34.703125 C 50.964844 34.703125 51.234375 34.511719 51.324219 34.21875 C 51.433594 33.855469 51.226562 33.476562 50.867188 33.367188 C 37.609375 29.390625 24.214844 33.203125 23.652344 33.367188 Z M 23.652344 33.367188 " fill-opacity="1" fill-rule="nonzero"/></svg>