<svg xmlns="http://www.w3.org/2000/svg" xmlns:xlink="http://www.w3.org/1999/xlink" width="100" zoomAndPan="magnify" viewBox="0 0 75 74.999997" height="100" preserveAspectRatio="xMidYMid meet" version="1.0"><defs><clipPath id="b5b19dcb26"><path d="M 5.679688 1 L 68.679688 1 L 68.679688 39 L 5.679688 39 Z M 5.679688 1 " clip-rule="nonzero"/></clipPath><clipPath id="e2cf237ccb"><path d="M 23 60 L 51 60 L 51 73.699219 L 23 73.699219 Z M 23 60 " clip-rule="nonzero"/></clipPath></defs><g clip-path="url(#b5b19dcb26)"><path fill="#daa63f" d="M 37.039062 38.335938 C 36.757812 38.335938 36.496094 38.222656 36.3125 38.007812 L 5.910156 2.585938 C 5.664062 2.308594 5.613281 1.914062 5.761719 1.566406 C 5.910156 1.238281 6.257812 1.007812 6.617188 1.007812 L 67.425781 1.007812 C 67.789062 1.007812 68.132812 1.222656 68.28125 1.566406 C 68.429688 1.894531 68.378906 2.289062 68.132812 2.585938 L 37.746094 38.007812 C 37.566406 38.222656 37.300781 38.335938 37.039062 38.335938 Z M 8.691406 2.914062 L 37.023438 35.9375 L 65.371094 2.914062 Z M 8.691406 2.914062 " fill-opacity="1" fill-rule="nonzero"/></g><g clip-path="url(#e2cf237ccb)"><path fill="#daa63f" d="M 49.855469 73.988281 L 24.222656 73.988281 C 23.828125 73.988281 23.480469 73.742188 23.332031 73.382812 C 23.183594 73.019531 23.285156 72.609375 23.5625 72.34375 L 36.378906 60.464844 C 36.742188 60.136719 37.300781 60.136719 37.664062 60.464844 L 50.480469 72.34375 C 50.757812 72.609375 50.859375 73.019531 50.710938 73.382812 C 50.5625 73.742188 50.234375 73.988281 49.855469 73.988281 Z M 26.625 72.097656 L 47.417969 72.097656 L 37.023438 62.457031 Z M 26.625 72.097656 " fill-opacity="1" fill-rule="nonzero"/></g><path fill="#daa63f" d="M 46.1875 14.828125 C 40.839844 14.828125 36.363281 13.707031 31.972656 12.589844 C 26.460938 11.207031 20.75 9.761719 13.265625 10.535156 C 12.738281 10.582031 12.277344 10.203125 12.226562 9.695312 C 12.179688 9.167969 12.558594 8.707031 13.066406 8.65625 C 20.882812 7.867188 26.753906 9.332031 32.414062 10.761719 C 40.03125 12.671875 47.222656 14.5 58.738281 10.863281 C 59.234375 10.699219 59.777344 10.976562 59.921875 11.488281 C 60.089844 11.980469 59.808594 12.523438 59.296875 12.671875 C 54.296875 14.234375 50.019531 14.828125 46.1875 14.828125 Z M 46.1875 14.828125 " fill-opacity="1" fill-rule="nonzero"/><path fill="#daa63f" d="M 37.039062 62.113281 C 36.511719 62.113281 36.085938 61.683594 36.085938 61.15625 L 36.085938 37.398438 C 36.085938 36.875 36.511719 36.445312 37.039062 36.445312 C 37.566406 36.445312 37.992188 36.875 37.992188 37.398438 L 37.992188 61.171875 C 37.976562 61.683594 37.546875 62.113281 37.039062 62.113281 Z M 37.039062 62.113281 " fill-opacity="1" fill-rule="nonzero"/></svg>